<svg version="1.0" xmlns="http://www.w3.org/2000/svg" width="1067.000000pt" height="1068.000000pt" viewBox="0 0 1067.000000 1068.000000" preserveAspectRatio="xMidYMid meet">

<g transform="translate(0.000000,1068.000000) scale(0.100000,-0.100000)" fill="#000000" stroke="none">
<path d="M4319 10047 c-24 -13 -53 -39 -64 -58 -20 -34 -20 -49 -20 -1389 0&#xA;-1503 -3 -1417 66 -1639 178 -566 716 -1026 1369 -1171 232 -52 540 -65 782&#xA;-34 806 104 1442 643 1600 1357 l23 102 0 1377 c0 1374 0 1377 -21 1405 -26&#xA;36 -99 73 -144 73 -20 0 -51 -8 -70 -18 -19 -10 -304 -246 -634 -526 l-599&#xA;-508 -106 18 c-151 27 -542 27 -689 1 -87 -16 -106 -17 -122 -5 -10 7 -283&#xA;237 -605 511 -323 275 -602 505 -621 513 -48 20 -95 17 -145 -9z m944 -2112&#xA;c167 -43 312 -168 398 -340 58 -118 81 -217 82 -360 2 -141 -11 -192 -50 -202&#xA;-32 -8 -48 10 -118 134 -67 118 -226 279 -338 342 -159 90 -270 121 -434 121&#xA;-113 0 -133 9 -133 61 0 63 148 183 283 230 96 34 215 39 310 14z m2086 -10&#xA;c90 -29 174 -81 245 -154 39 -39 49 -56 48 -81 -1 -55 -13 -60 -131 -60 -336&#xA;0 -633 -194 -813 -530 -39 -73 -69 -88 -104 -49 -17 19 -19 36 -19 183 0 156&#xA;2 164 33 256 78 226 241 391 438 445 84 23 211 19 303 -10z m-1296 -1146 c21&#xA;-5 53 -23 71 -39 l33 -30 19 21 c30 33 74 51 124 51 58 0 88 -15 96 -48 10&#xA;-39 -11 -71 -61 -95 -52 -25 -100 -76 -126 -135 -33 -73 -73 -70 -109 7 -27&#xA;56 -84 114 -136 135 -71 30 -67 106 6 131 44 15 38 15 83 2z"></path>
<path d="M4145 6014 c-1064 -127 -1987 -788 -2449 -1755 -266 -556 -356 -1161&#xA;-270 -1804 55 -413 178 -773 358 -1050 291 -447 804 -735 1401 -785 91 -8 937&#xA;-10 2835 -8 3016 4 2733 -3 2885 72 301 150 446 503 337 819 -68 199 -220 351&#xA;-424 425 l-73 27 -665 5 -665 5 -5 1372 -5 1373 -59 -81 c-121 -163 -312 -323&#xA;-501 -417 -321 -160 -769 -218 -1124 -146 -342 69 -673 264 -911 537 -307 351&#xA;-470 793 -470 1278 l0 149 -37 -1 c-21 -1 -92 -8 -158 -15z m1317 -4504 c-10&#xA;-204 -113 -416 -253 -522 -118 -89 -263 -103 -393 -39 -173 85 -297 302 -321&#xA;564 l-7 77 488 -2 489 -3 -3 -75z m1755 -7 c-17 -243 -151 -476 -322 -559 -54&#xA;-26 -70 -29 -160 -29 -90 0 -106 3 -160 29 -80 39 -179 140 -227 231 -48 92&#xA;-86 226 -95 331 l-6 84 488 0 488 0 -6 -87z"></path>
<path d="M4633 5944 c-11 -30 17 -327 41 -434 70 -309 207 -562 421 -776 282&#xA;-283 620 -418 1005 -401 398 18 687 134 911 364 168 172 278 380 348 659 44&#xA;176 88 440 72 432 -3 -2 -85 -42 -181 -90 -279 -139 -560 -219 -870 -249 -151&#xA;-14 -432 -6 -580 16 -399 61 -780 215 -1073 436 -43 33 -80 59 -83 59 -3 0 -7&#xA;-7 -11 -16z"></path>
</g>
</svg>